<?xml version="1.0" encoding="utf-8"?>
<!-- Generator: Adobe Illustrator 23.0.3, SVG Export Plug-In . SVG Version: 6.00 Build 0)  -->
<svg version="1.1" id="Ebene_1" xmlns="http://www.w3.org/2000/svg" xmlns:xlink="http://www.w3.org/1999/xlink" x="0px" y="0px"
	 viewBox="0 0 850.39 850.39" style="enable-background:new 0 0 850.39 850.39;" xml:space="preserve">
<style type="text/css">
	.st0{fill:#CDA253;}
	.st1{fill:#0A1A5C;}
</style>
<g>
	<g>
		<path class="st0" d="M545.08,590.59c-101.36,20.65-131.74,19.69-230.96,1.03c0.06,9.99-2.65,37.08-11.11,47.46
			c4.93,0.56,251.01,0.33,253.26,0.18C547.56,628.68,544.91,600.55,545.08,590.59z"/>
		<path class="st0" d="M565.5,182.03c0.85-0.26,1.68-0.49,2.48-0.7H578c6.92,0,12.59-5.67,12.59-12.59v0
			c0-6.92-5.66-12.59-12.59-12.59H562c-2.32-16.22,0.68-37.4,5.79-52.04c27.75-79.6,102.29-15.82,70.98,9.52
			c-3.66-11.24-14.22-19.36-26.68-19.36c-15.49,0-28.05,12.56-28.05,28.05c0,9.01,4.24,17.02,10.85,22.16
			c0.91,0.79,1.86,1.51,2.87,2.15c18.28,11.49,51.82-1.81,61.04-28.55C680.4,55.4,575.5,18.46,541.4,98.94
			c-7.19,16.97-8.39,37.43-7.99,57.21h-26.68v-7.88c0-5.42-4.43-9.85-9.86-9.85c-5.42,0-9.86,4.43-9.86,9.85v7.88h-15.07v-7.88
			c0-5.42-4.43-9.85-9.86-9.85c-5.42,0-9.86,4.43-9.86,9.85v7.88H435.8v-7.88c0-5.42-4.43-9.85-9.86-9.85
			c-5.42,0-9.86,4.43-9.86,9.85v7.88h-16.09v-7.88c0-5.42-4.43-9.85-9.86-9.85c-5.42,0-9.86,4.43-9.86,9.85v7.88h-15.61v-7.88
			c0-5.42-4.43-9.85-9.86-9.85c-5.42,0-9.85,4.43-9.85,9.85v7.88h-27.69c-3.7-23.43,3.8-66.1-37.11-93.01
			c-33.32-21.93-77.18-7.09-88.48,23.38c-14.74,39.79,28.46,75.59,59.32,60.96c1.33-0.63,2.57-1.36,3.7-2.18
			c8.11-4.92,13.53-13.83,13.53-24.01c0-15.49-12.56-28.06-28.06-28.06c-13.73,0-25.15,9.86-27.58,22.87
			c-32.48-40.37,47-83.3,70.05-11.33c4.28,13.35,10.31,38.3,5.23,51.38h-15.49c-6.92,0-12.59,5.67-12.59,12.59v0
			c0,6.92,5.67,12.59,12.59,12.59h10.64c0.53,0.04,1.07,0.07,1.61,0.1c1.18,63.94-161.87,250.95-61.93,348.33
			c23.29,22.69,37.26,34.11,72.17,47.38c23.46,8.92,53.53,15.27,86.35,18.15c35.93,0.86,41.13-20.38,43.81-47
			c0.01-0.13,0.02-0.2,0.02-0.2c-0.01,0.07-0.01,0.13-0.02,0.2c-0.33,3.35-3.81,48.54,48.06,45.67
			c66.8-7.92,131.1-31.9,165.45-78.68c24.04-32.74,25.92-77.58,14.48-121.07C633.52,320.05,570.04,233.7,565.5,182.03z
			 M361.49,181.33h24.93l-0.02,321.06c-3.58,1.48-6.12,5.02-6.12,9.11v8.32l-15.61-2.46v-5.85c0-3.66-2.02-6.87-5-8.57l-0.07-321.59
			L361.49,181.33z M261.05,272.5c2.38-3.34,6.01-5.27,9.83-5.64c1.04,3.85,0.44,8.08-2.04,11.54c-2.38,3.34-6,5.27-9.83,5.63
			C257.97,280.2,258.58,275.97,261.05,272.5z M231.06,412.11c2.64,4.97,3.14,10.99,0.82,16.52c-2.23,5.34-6.61,9.14-11.76,10.85
			c-2.65-4.97-3.14-10.99-0.82-16.52C221.53,417.62,225.91,413.82,231.06,412.11z M226.8,392.23c3-4.45,7.67-7.12,12.67-7.74
			c1.51,5,0.86,10.57-2.25,15.19c-3,4.45-7.67,7.12-12.67,7.74C223.05,402.42,223.69,396.85,226.8,392.23z M219.01,456.11
			c1.56-6.06,5.67-10.8,10.92-13.43c3.6,4.91,5.06,11.28,3.44,17.57c-1.56,6.06-5.67,10.8-10.92,13.43
			C218.84,468.77,217.39,462.4,219.01,456.11z M236.16,471.81c5.24,3.7,8.84,9.58,9.32,16.41c0.47,6.58-2.04,12.7-6.41,17.08
			c-5.25-3.7-8.84-9.58-9.32-16.4C229.28,482.31,231.79,476.19,236.16,471.81z M244.56,373.09c-3,4.45-7.67,7.12-12.67,7.74
			c-1.51-5.01-0.86-10.57,2.25-15.19c3-4.45,7.67-7.11,12.67-7.74C248.31,362.9,247.67,368.46,244.56,373.09z M238.88,352.35
			c-0.69-4.59,0.58-9.41,3.9-13.08c3.2-3.54,7.65-5.29,12.13-5.2c0.69,4.59-0.58,9.41-3.9,13.08
			C247.8,350.69,243.35,352.44,238.88,352.35z M252.08,316.73c3.2-3.06,7.43-4.37,11.55-3.99c0.33,4.29-1.17,8.65-4.48,11.82
			c-3.2,3.05-7.43,4.37-11.55,3.99C247.26,324.26,248.76,319.9,252.08,316.73z M248.27,508.16c0.31-7.46,3.91-14.03,9.38-18.4
			c5.43,4.83,8.72,11.9,8.41,19.64c-0.31,7.46-3.91,14.03-9.37,18.4C251.25,522.97,247.95,515.9,248.27,508.16z M265.38,302
			c-2.96,2.83-6.89,4.05-10.71,3.7c-0.31-3.97,1.09-8.02,4.16-10.96c2.96-2.83,6.89-4.05,10.71-3.69
			C269.84,295.02,268.45,299.07,265.38,302z M286.24,560.04c-12.86-4.79-27.62-13.95-38.25-22.35
			c-23.67-18.7-40.6-43.46-44.19-73.95c-2.77-23.59,2.56-50.17,9.11-72.79c6.84-23.63,16.14-46.94,26.49-69.25
			c4.8-10.35,9.93-20.93,15.49-30.9l2.51-4.5c-19.71,49.45-49.37,125.11-43.36,176.24c2,17,10.18,30.93,18.41,44.93
			c11.99,20.42,37.21,40.34,58.62,54.38L286.24,560.04z M268.62,524.55c0.52-8.28,4.68-15.48,10.86-20.2
			c5.91,5.49,9.4,13.42,8.86,22c-0.52,8.28-4.68,15.48-10.86,20.21C271.57,541.06,268.08,533.13,268.62,524.55z M274.01,371.55
			c6.74-31.6,18.12-59.18,25.28-90.85c7.1-31.44,13.99-65.42,16.26-99.37h3.81l31.53,0.32l-0.01,320.82
			c-3.47,1.53-5.92,5.01-5.92,9.03v1.9c-12.71-2.77-29.22-9.76-37.07-14.79C263.18,469.99,263.34,421.59,274.01,371.55z
			 M304.94,527.96c22.1,30.38,57.66,59.46,84.91,30.35C367.77,601.1,323.63,561.17,304.94,527.96z M365.28,588.33
			c40.33,0.53,52.69-34.1,32.23-46.89c-25.27,8.19-30.67-16.94-3.55-10.59C420.95,537.18,429.23,593.34,365.28,588.33z
			 M421.37,502.78c-3.14,1.65-5.29,4.95-5.29,8.73v10.69l-16.09-1.01v-9.69c0-3.78-2.16-7.08-5.3-8.73l-0.05-321.45h26.88
			L421.37,502.78z M579.51,266.87c3.82,0.37,7.45,2.3,9.83,5.64c2.47,3.46,3.08,7.69,2.04,11.54c-3.83-0.37-7.45-2.3-9.83-5.63
			C579.08,274.95,578.47,270.72,579.51,266.87z M617.03,460.25c-1.63-6.29-0.17-12.66,3.43-17.57c5.25,2.62,9.35,7.37,10.92,13.43
			c1.62,6.29,0.16,12.66-3.44,17.57C622.7,471.05,618.6,466.31,617.03,460.25z M620.65,488.89c-0.49,6.83-4.08,12.7-9.32,16.4
			c-4.36-4.38-6.88-10.5-6.4-17.08c0.49-6.83,4.08-12.7,9.32-16.41C618.6,476.19,621.12,482.31,620.65,488.89z M630.27,439.48
			c-5.15-1.71-9.53-5.5-11.76-10.85c-2.31-5.53-1.82-11.55,0.83-16.52c5.15,1.71,9.53,5.51,11.76,10.85
			C633.41,428.49,632.92,434.51,630.27,439.48z M625.84,407.43c-5-0.62-9.67-3.29-12.67-7.74c-3.11-4.62-3.75-10.19-2.25-15.19
			c5,0.62,9.67,3.28,12.67,7.74C626.7,396.85,627.35,402.42,625.84,407.43z M618.51,380.83c-5-0.62-9.67-3.29-12.67-7.74
			c-3.11-4.62-3.75-10.19-2.25-15.19c5,0.62,9.67,3.28,12.67,7.74C619.37,370.25,620.02,375.82,618.51,380.83z M611.52,352.35
			c-4.47,0.09-8.93-1.66-12.13-5.21c-3.32-3.67-4.59-8.49-3.9-13.08c4.47-0.08,8.93,1.67,12.13,5.2
			C610.94,342.94,612.21,347.76,611.52,352.35z M593.72,527.8c-5.47-4.38-9.07-10.94-9.38-18.4c-0.32-7.74,2.98-14.81,8.41-19.64
			c5.47,4.38,9.07,10.94,9.37,18.4C602.44,515.9,599.15,522.97,593.72,527.8z M602.8,328.55c-4.13,0.38-8.36-0.93-11.55-3.99
			c-3.32-3.17-4.82-7.53-4.49-11.82c4.13-0.38,8.36,0.94,11.55,3.99C601.64,319.9,603.13,324.26,602.8,328.55z M595.73,305.7
			c-3.83,0.36-7.75-0.87-10.71-3.7c-3.08-2.93-4.47-6.98-4.16-10.95c3.83-0.36,7.75,0.86,10.71,3.69
			C594.64,297.68,596.03,301.72,595.73,305.7z M465.02,181.33h16.29l10.61,0.13c-0.1,56.39,0.52,284.19,0.35,321.34
			c-3.12,1.66-5.26,4.95-5.26,8.71v5.78l-15.07,2.08v-7.86c0-4.4-2.92-8.15-6.92-9.41V181.33z M435.8,521.93v-10.42
			c0-3.98-2.39-7.43-5.81-8.98l-0.04-321.19h26.78c-0.46,18.76,0.48,254.05-0.03,321.95c-2.68,1.77-4.45,4.8-4.45,8.23v9.83
			L435.8,521.93z M456.44,530.85c27.13-6.36,21.72,18.78-3.55,10.59c-20.46,12.79-8.11,47.42,32.22,46.89
			C421.16,593.34,429.45,537.18,456.44,530.85z M460.54,558.31c27.25,29.1,62.81,0.03,84.91-30.35
			C526.77,561.17,482.62,601.1,460.54,558.31z M506.73,513.07v-1.57c0-4.21-2.68-7.83-6.42-9.23l-0.07-320.94h34.55
			c2,33.73,9.17,68.11,16.35,100.14c11.96,53.37,50.4,132.95,19.17,188.49C559.41,489.34,536.14,507.05,506.73,513.07z
			 M572.91,546.56c-6.18-4.73-10.34-11.93-10.86-20.21c-0.54-8.58,2.95-16.51,8.86-22c6.18,4.72,10.34,11.92,10.86,20.2
			C582.31,533.13,578.82,541.06,572.91,546.56z M646.59,463.74c-3.58,30.49-20.51,55.25-44.19,73.95
			c-10.63,8.4-25.39,17.56-38.25,22.35l-4.83,1.8c21.41-14.04,46.63-33.95,58.62-54.38c8.22-14,16.41-27.93,18.41-44.93
			c6.01-51.14-23.65-126.8-43.36-176.24l2.51,4.5c5.56,9.97,10.69,20.56,15.49,30.9c10.35,22.31,19.65,45.61,26.49,69.25
			C644.03,413.57,649.36,440.14,646.59,463.74z"/>
	</g>
	<g>
		<path class="st1" d="M211.52,750.91c-2.68,0-5.6-0.03-8.77-0.08c-3.17-0.04-6.22-0.09-9.14-0.15c-2.92-0.04-5.42-0.12-7.5-0.23
			v2.97c4.16,0.1,7.33,0.55,9.51,1.34c2.18,0.79,3.64,2.31,4.39,4.54c0.74,2.23,1.11,5.62,1.11,10.18v14.56
			c0,1.88-0.25,3.4-0.74,4.54c-0.5,1.14-1.44,2.2-2.83,3.19c-1.09,0.79-2.53,1.49-4.31,2.08c-1.78,0.59-3.86,0.89-6.24,0.89
			c-9.21,0-16.27-4.1-21.18-12.33c-4.9-8.22-7.35-21.25-7.35-39.09c0-6.54,0.6-12.85,1.79-18.94c1.18-6.1,3.02-11.57,5.49-16.43
			c2.48-4.86,5.65-8.69,9.51-11.52c3.86-2.82,8.52-4.23,13.97-4.23c3.57,0,7.11,0.65,10.63,1.94c3.52,1.29,6.47,3.07,8.84,5.35
			c3.86,3.17,6.52,6.95,7.95,11.36c1.43,4.42,2.5,9.58,3.2,15.53h3.41c0-9.11,0.05-16.42,0.15-21.92c0.1-5.5,0.25-10.18,0.45-14.04
			h-3.42c-0.59,5.95-1.84,8.92-3.72,8.92c-0.79,0-1.78-0.45-2.96-1.34c-3.37-2.68-7.19-4.95-11.45-6.84
			c-4.26-1.88-9.76-2.83-16.49-2.83c-10.5,0-19.79,2.33-27.87,6.98c-8.08,4.66-14.41,11.15-19.02,19.47
			c-4.61,8.32-6.91,18.13-6.91,29.43c0,16.85,4.5,29.98,13.52,39.39c9.01,9.41,22.19,14.11,39.53,14.11c4.46,0,8.72-0.72,12.79-2.15
			c4.05-1.44,7.92-3.2,11.58-5.28c2.38-1.38,4.14-2.25,5.28-2.6c1.14-0.34,2.05-0.52,2.74-0.52c1.49,0,2.56,0.99,3.2,2.97
			c0.65,1.99,1.02,3.82,1.11,5.5h2.97v-29.42c0-5.56,0.42-9.02,1.27-10.41c0.84-1.39,2.65-2.19,5.42-2.38v-2.97
			c-2.18,0.1-5,0.21-8.47,0.3C219.49,750.85,215.68,750.91,211.52,750.91z"/>
		<path class="st1" d="M322.7,773.05c0-5.15,0.15-9.32,0.45-12.49h-3.42c-1.29,7.92-3.15,14.22-5.57,18.87
			c-2.43,4.66-5.35,7.95-8.77,9.89c-3.42,1.93-7.35,2.9-11.81,2.9h-7.28c-2.97,0-5.18-0.25-6.62-0.74c-1.43-0.49-2.4-1.49-2.9-2.97
			c-0.5-1.49-0.74-3.77-0.74-6.84v-37.45h4.75c3.96,0,7.18,0.91,9.66,2.75c2.48,1.84,4.38,4.23,5.72,7.21
			c1.34,2.97,2.25,6.2,2.75,9.66h3.42c-0.39-5.64-0.64-9.95-0.74-12.93c-0.1-2.97-0.14-5.7-0.14-8.17c0-2.47-0.03-5.2-0.08-8.18
			c-0.05-2.96,0.12-7.27,0.52-12.93h-3.42c-0.5,2.68-1.39,5.53-2.68,8.55c-1.29,3.02-3.12,5.62-5.5,7.8
			c-2.38,2.18-5.56,3.27-9.51,3.27h-4.75v-36.86c0-3.16,0.24-5.47,0.74-6.91c0.49-1.43,1.46-2.4,2.9-2.9
			c1.43-0.49,3.64-0.74,6.62-0.74h6.09c4.45,0,8.34,0.87,11.67,2.6c3.32,1.74,6.02,4.71,8.1,8.92c2.07,4.21,3.61,9.93,4.61,17.17
			h3.42c-0.1-1.19-0.2-2.68-0.3-4.47c-0.1-1.78-0.15-3.66-0.15-5.64c0-2.18,0.07-5.3,0.22-9.36c0.15-4.06,0.42-8.28,0.81-12.63
			c-4.55,0.2-9.73,0.32-15.53,0.37c-5.8,0.05-10.98,0.07-15.53,0.07h-13.38c-5.55,0-11.44-0.04-17.69-0.15
			c-6.24-0.09-12.03-0.2-17.39-0.29v2.96c3.07,0.1,5.42,0.48,7.06,1.12c1.63,0.64,2.72,1.83,3.27,3.56
			c0.54,1.74,0.81,4.44,0.81,8.11v73.72c0,3.56-0.27,6.24-0.81,8.02c-0.55,1.79-1.62,2.97-3.2,3.57c-1.59,0.59-3.96,0.99-7.13,1.19
			v2.96c5.35-0.19,11.14-0.32,17.39-0.37c6.24-0.04,12.14-0.07,17.69-0.07h13.38c4.95,0,10.6,0.03,16.94,0.07
			c6.34,0.05,12.04,0.18,17.09,0.37c-0.49-4.45-0.79-8.76-0.89-12.93C322.75,778.55,322.7,775.33,322.7,773.05z"/>
		<path class="st1" d="M713.7,790.51c-1.73-1.34-3.29-3.78-4.68-7.35l-36.11-93.04c-1.59,0.11-3.29,0.16-5.12,0.16
			c-1.84,0-3.55-0.05-5.13-0.16l-33.89,86.95c-2.08,5.45-4.21,9.32-6.39,11.59c-2.18,2.28-4.31,3.62-6.39,4.02v2.96
			c1.48-0.19,3.2-0.32,5.13-0.37c1.93-0.04,3.99-0.07,6.17-0.07c3.07,0,6.09,0.03,9.07,0.07c2.97,0.05,6.1,0.18,9.37,0.37v-2.96
			c-3.97-0.2-7.14-0.97-9.51-2.31c-2.38-1.34-3.6-3.89-3.64-7.66c-0.06-3.76,1.31-9.31,4.09-16.64l3.93-10.25h32.34l8.91,24.37
			c1.98,5.05,2.3,8.35,0.96,9.89c-1.34,1.53-4.53,2.4-9.59,2.6v2.96c2.38-0.19,5.6-0.32,9.66-0.37c4.06-0.04,8.37-0.07,12.93-0.07
			c4.06,0,8.1,0.03,12.11,0.07c4.02,0.05,7.51,0.18,10.48,0.37v-2.96C717,792.57,715.44,791.85,713.7,790.51z M641.73,752.84
			l15.42-40.17l14.69,40.17H641.73z"/>
		<path class="st1" d="M442.3,690.86h-5.35h-5.2l-27.41,71.88l-29.95-72.33c-3.17,0.09-6.81,0.2-10.92,0.29
			c-4.11,0.1-8.3,0.15-12.56,0.15c-2.29,0-4.61-0.04-6.99-0.15c-2.38-0.09-4.36-0.2-5.95-0.29v2.96c3.07,0.1,5.43,0.48,7.06,1.12
			c1.63,0.64,2.72,1.83,3.28,3.56c0.54,1.74,0.82,4.44,0.82,8.11v66.88c0,4.75-0.27,8.49-0.82,11.22c-0.55,2.72-1.62,4.68-3.2,5.87
			c-1.59,1.19-3.97,2.03-7.14,2.53v2.96c1.59-0.19,3.57-0.32,5.95-0.37c2.38-0.04,4.71-0.07,6.99-0.07c2.67,0,5.54,0.03,8.62,0.07
			c3.07,0.05,5.55,0.18,7.43,0.37v-2.96c-4.36-0.5-7.56-1.37-9.58-2.6c-2.03-1.24-3.34-3.32-3.94-6.25
			c-0.6-2.92-0.89-7.1-0.89-12.56v-71.18l40.12,95.71h2.38l35.82-93.58v77.68c0,3.56-0.3,6.24-0.89,8.02
			c-0.6,1.79-1.76,2.97-3.5,3.57c-1.73,0.59-4.28,0.99-7.65,1.19v2.96c2.58-0.19,5.94-0.32,10.1-0.37
			c4.17-0.04,8.63-0.07,13.38-0.07c4.36,0,8.64,0.03,12.85,0.07c4.22,0.05,7.71,0.18,10.48,0.37v-2.96c-3.17-0.2-5.55-0.6-7.13-1.19
			c-1.59-0.6-2.65-1.78-3.19-3.57c-0.55-1.78-0.82-4.46-0.82-8.02v-73.72c0-3.66,0.27-6.37,0.82-8.11c0.54-1.73,1.61-2.92,3.19-3.56
			c1.59-0.65,3.96-1.02,7.13-1.12v-2.96c-2.77,0.09-6.26,0.2-10.48,0.29C450.94,690.82,446.66,690.86,442.3,690.86z"/>
		<path class="st1" d="M583.27,690.86h-5.35h-5.21l-27.41,71.88l-29.96-72.32c-3.17,0.09-6.81,0.2-10.93,0.29
			c-4.11,0.1-8.29,0.15-12.56,0.15c-2.28,0-4.6-0.04-6.99-0.15c-2.37-0.09-4.36-0.2-5.94-0.29v2.96c3.07,0.1,5.43,0.48,7.06,1.12
			c1.63,0.64,2.72,1.83,3.26,3.56c0.54,1.74,0.82,4.44,0.82,8.11v66.88c0,4.75-0.28,8.49-0.82,11.22c-0.54,2.72-1.61,4.68-3.2,5.87
			c-1.58,1.19-3.96,2.03-7.13,2.53v2.96c1.58-0.19,3.57-0.32,5.94-0.37c2.38-0.04,4.71-0.07,6.99-0.07c2.68,0,5.55,0.03,8.62,0.07
			c3.07,0.05,5.55,0.18,7.43,0.37v-2.96c-4.36-0.5-7.56-1.37-9.59-2.6c-2.03-1.24-3.35-3.32-3.94-6.25
			c-0.59-2.92-0.89-7.1-0.89-12.56v-71.18l40.12,95.71h2.39l35.81-93.58v77.68c0,3.56-0.3,6.24-0.89,8.02
			c-0.59,1.79-1.76,2.97-3.49,3.57c-1.74,0.59-4.29,0.99-7.66,1.19v2.96c2.57-0.19,5.95-0.32,10.11-0.37
			c4.16-0.04,8.62-0.07,13.37-0.07c4.36,0,8.64,0.03,12.85,0.07c4.21,0.05,7.7,0.18,10.48,0.37v-2.96c-3.16-0.2-5.55-0.6-7.13-1.19
			c-1.59-0.6-2.65-1.78-3.2-3.57c-0.54-1.78-0.82-4.46-0.82-8.02v-73.72c0-3.66,0.27-6.37,0.82-8.11c0.54-1.73,1.61-2.92,3.2-3.56
			c1.58-0.65,3.97-1.02,7.13-1.12v-2.96c-2.77,0.09-6.27,0.2-10.48,0.29C591.91,690.82,587.63,690.86,583.27,690.86z"/>
	</g>
</g>
</svg>
