<?xml version="1.0" encoding="utf-8"?>
<!-- Generator: Adobe Illustrator 23.0.3, SVG Export Plug-In . SVG Version: 6.00 Build 0)  -->
<svg version="1.1" id="Layer_1" xmlns="http://www.w3.org/2000/svg" xmlns:xlink="http://www.w3.org/1999/xlink" x="0px" y="0px"
	 viewBox="0 0 200 200" style="enable-background:new 0 0 200 200;" xml:space="preserve">
<style type="text/css">
	.st0{fill:#C69636;}
</style>
<g>
	<path class="st0" d="M138.82,179.18c-32.82,6.69-42.66,6.38-74.79,0.33c0.02,3.24-0.86,12.01-3.6,15.37
		c1.6,0.18,81.28,0.11,82.01,0.06C139.62,191.51,138.76,182.41,138.82,179.18z"/>
	<path class="st0" d="M145.43,46.89c0.28-0.09,0.54-0.16,0.8-0.23h3.25c2.24,0,4.08-1.83,4.08-4.08v0c0-2.24-1.83-4.08-4.08-4.08
		h-5.18c-0.75-5.25,0.22-12.11,1.87-16.85c8.99-25.77,33.12-5.12,22.99,3.08c-1.19-3.64-4.61-6.27-8.64-6.27
		c-5.02,0-9.08,4.07-9.08,9.08c0,2.92,1.37,5.51,3.51,7.17c0.29,0.26,0.6,0.49,0.93,0.69c5.92,3.72,16.78-0.59,19.77-9.25
		c7-20.29-26.97-32.25-38.01-6.19c-2.33,5.5-2.72,12.12-2.59,18.52h-8.64v-2.55c0-1.75-1.44-3.19-3.19-3.19
		c-1.76,0-3.19,1.44-3.19,3.19v2.55h-4.88v-2.55c0-1.75-1.44-3.19-3.19-3.19c-1.76,0-3.19,1.44-3.19,3.19v2.55h-5.32v-2.55
		c0-1.75-1.44-3.19-3.19-3.19c-1.76,0-3.19,1.44-3.19,3.19v2.55h-5.21v-2.55c0-1.75-1.44-3.19-3.19-3.19
		c-1.76,0-3.19,1.44-3.19,3.19v2.55H80.4v-2.55c0-1.75-1.44-3.19-3.19-3.19c-1.75,0-3.19,1.44-3.19,3.19v2.55h-8.97
		c-1.2-7.59,1.23-21.4-12.02-30.12c-10.79-7.1-24.99-2.3-28.65,7.57C19.61,28.84,33.6,40.43,43.59,35.7
		c0.43-0.21,0.83-0.44,1.2-0.71c2.63-1.59,4.38-4.48,4.38-7.77c0-5.02-4.07-9.08-9.08-9.08c-4.44,0-8.14,3.19-8.93,7.41
		C20.64,12.46,46.38-1.43,53.84,21.87c1.38,4.32,3.34,12.4,1.69,16.64h-5.01c-2.24,0-4.08,1.83-4.08,4.08v0
		c0,2.24,1.83,4.08,4.08,4.08h3.45c0.17,0.01,0.35,0.02,0.52,0.03c0.38,20.7-52.41,81.26-20.05,112.79
		c7.54,7.35,12.07,11.05,23.37,15.34c7.6,2.89,17.33,4.95,27.96,5.88c11.63,0.28,13.32-6.6,14.19-15.22c0-0.04,0.01-0.07,0.01-0.07
		c0,0.02,0,0.04-0.01,0.07c-0.11,1.08-1.23,15.72,15.56,14.79c21.63-2.57,42.45-10.33,53.57-25.48c7.78-10.6,8.39-25.12,4.69-39.2
		C167.46,91.58,146.9,63.62,145.43,46.89z M79.37,46.66h8.07l-0.01,103.96c-1.16,0.48-1.98,1.62-1.98,2.95v2.69l-5.05-0.8v-1.9
		c0-1.18-0.65-2.22-1.62-2.78L78.76,46.66L79.37,46.66z M46.85,76.18c0.77-1.08,1.95-1.71,3.18-1.83c0.34,1.25,0.14,2.62-0.66,3.74
		c-0.77,1.08-1.94,1.71-3.18,1.82C45.85,78.67,46.05,77.3,46.85,76.18z M37.14,121.39c0.86,1.61,1.02,3.56,0.27,5.35
		c-0.72,1.73-2.14,2.96-3.81,3.51c-0.86-1.61-1.02-3.56-0.27-5.35C34.05,123.17,35.47,121.94,37.14,121.39z M35.76,114.95
		c0.97-1.44,2.49-2.3,4.1-2.51c0.49,1.62,0.28,3.42-0.73,4.92c-0.97,1.44-2.48,2.31-4.1,2.51
		C34.54,118.25,34.75,116.45,35.76,114.95z M33.23,135.64c0.51-1.96,1.84-3.5,3.53-4.35c1.17,1.59,1.64,3.65,1.11,5.69
		c-0.51,1.96-1.84,3.5-3.53,4.35C33.18,139.73,32.71,137.67,33.23,135.64z M38.79,140.72c1.7,1.2,2.86,3.1,3.02,5.31
		c0.15,2.13-0.66,4.11-2.07,5.53c-1.7-1.2-2.86-3.1-3.02-5.31C36.56,144.12,37.37,142.14,38.79,140.72z M41.51,108.75
		c-0.97,1.44-2.49,2.31-4.1,2.51c-0.49-1.62-0.28-3.42,0.73-4.92c0.97-1.44,2.49-2.3,4.1-2.5
		C42.72,105.45,42.51,107.26,41.51,108.75z M39.67,102.04c-0.22-1.49,0.19-3.05,1.26-4.24c1.04-1.15,2.48-1.71,3.93-1.69
		c0.22,1.49-0.19,3.05-1.26,4.24C42.56,101.5,41.12,102.07,39.67,102.04z M43.94,90.5c1.04-0.99,2.41-1.41,3.74-1.29
		c0.11,1.39-0.38,2.8-1.45,3.83c-1.04,0.99-2.41,1.41-3.74,1.29C42.38,92.94,42.87,91.53,43.94,90.5z M42.71,152.49
		c0.1-2.42,1.27-4.54,3.04-5.96c1.76,1.56,2.82,3.85,2.72,6.36c-0.1,2.42-1.27,4.54-3.04,5.96C43.67,157.28,42.61,155,42.71,152.49z
		 M48.25,85.73c-0.96,0.92-2.23,1.31-3.47,1.2c-0.1-1.29,0.35-2.6,1.35-3.55c0.96-0.92,2.23-1.31,3.47-1.2
		C49.7,83.47,49.25,84.78,48.25,85.73z M55.01,169.29c-4.16-1.55-8.94-4.52-12.39-7.24c-7.66-6.06-13.15-14.07-14.31-23.95
		c-0.9-7.64,0.83-16.24,2.95-23.57c2.21-7.65,5.22-15.2,8.58-22.42c1.55-3.35,3.22-6.78,5.02-10.01l0.81-1.46
		c-6.38,16.01-15.99,40.51-14.04,57.07c0.65,5.5,3.3,10.02,5.96,14.55c3.88,6.61,12.05,13.06,18.98,17.61L55.01,169.29z M49.3,157.8
		c0.17-2.68,1.52-5.01,3.52-6.54c1.91,1.78,3.04,4.35,2.87,7.13c-0.17,2.68-1.52,5.01-3.52,6.54
		C50.25,163.14,49.13,160.58,49.3,157.8z M51.05,108.26c2.18-10.23,5.87-19.16,8.19-29.42c2.3-10.18,4.53-21.18,5.27-32.18h1.23
		l10.21,0.1l0,103.89c-1.13,0.5-1.92,1.62-1.92,2.92v0.62c-4.11-0.9-9.46-3.16-12-4.79C47.54,140.13,47.59,124.46,51.05,108.26z
		 M61.06,158.9c7.16,9.84,18.67,19.25,27.5,9.83C81.4,182.59,67.11,169.65,61.06,158.9z M80.6,178.45
		c13.06,0.17,17.06-11.04,10.43-15.18c-8.18,2.65-9.93-5.49-1.15-3.43C98.62,161.89,101.31,180.07,80.6,178.45z M98.76,150.75
		c-1.02,0.54-1.71,1.6-1.71,2.83v3.46l-5.21-0.33v-3.14c0-1.22-0.7-2.29-1.72-2.83L90.11,46.66h8.7L98.76,150.75z M149.97,74.36
		c1.24,0.12,2.41,0.75,3.18,1.83c0.8,1.12,1,2.49,0.66,3.74c-1.24-0.12-2.41-0.74-3.18-1.82C149.83,76.97,149.63,75.6,149.97,74.36z
		 M162.12,136.98c-0.53-2.04-0.05-4.1,1.11-5.69c1.7,0.85,3.03,2.39,3.54,4.35c0.52,2.04,0.05,4.1-1.11,5.69
		C163.95,140.47,162.62,138.94,162.12,136.98z M163.29,146.25c-0.16,2.21-1.32,4.11-3.02,5.31c-1.41-1.42-2.23-3.4-2.07-5.53
		c0.16-2.21,1.32-4.11,3.02-5.31C162.63,142.14,163.44,144.12,163.29,146.25z M166.41,130.25c-1.67-0.55-3.09-1.78-3.81-3.51
		c-0.75-1.79-0.59-3.74,0.27-5.35c1.67,0.55,3.09,1.78,3.81,3.51C167.42,126.69,167.26,128.64,166.41,130.25z M164.97,119.87
		c-1.62-0.2-3.13-1.06-4.1-2.51c-1.01-1.5-1.21-3.3-0.73-4.92c1.62,0.2,3.13,1.06,4.1,2.51
		C165.25,116.45,165.46,118.25,164.97,119.87z M162.6,111.26c-1.62-0.2-3.13-1.06-4.1-2.51c-1.01-1.5-1.22-3.3-0.73-4.92
		c1.62,0.2,3.13,1.06,4.1,2.5C162.88,107.83,163.08,109.64,162.6,111.26z M160.33,102.04c-1.45,0.03-2.89-0.54-3.93-1.69
		c-1.08-1.19-1.49-2.75-1.26-4.24c1.45-0.03,2.89,0.54,3.93,1.69C160.15,98.99,160.56,100.55,160.33,102.04z M154.57,158.85
		c-1.77-1.42-2.94-3.54-3.04-5.96c-0.1-2.51,0.96-4.79,2.72-6.36c1.77,1.42,2.94,3.54,3.03,5.96
		C157.39,155,156.33,157.28,154.57,158.85z M157.51,94.33c-1.34,0.12-2.71-0.3-3.74-1.29c-1.07-1.03-1.56-2.44-1.45-3.83
		c1.34-0.12,2.71,0.3,3.74,1.29C157.13,91.53,157.62,92.94,157.51,94.33z M155.22,86.93c-1.24,0.12-2.51-0.28-3.47-1.2
		c-1-0.95-1.45-2.26-1.35-3.55c1.24-0.12,2.51,0.28,3.47,1.2C154.87,84.33,155.32,85.64,155.22,86.93z M112.9,46.66h5.28l3.44,0.04
		c-0.03,18.26,0.17,92.02,0.11,104.05c-1.01,0.54-1.7,1.6-1.7,2.82v1.87l-4.88,0.67v-2.55c0-1.43-0.95-2.64-2.24-3.05V46.66z
		 M103.43,156.95v-3.37c0-1.29-0.77-2.41-1.88-2.91l-0.01-104.01h8.67c-0.15,6.08,0.15,82.26-0.01,104.25
		c-0.87,0.57-1.44,1.55-1.44,2.66v3.18L103.43,156.95z M110.12,159.84c8.78-2.06,7.03,6.08-1.15,3.43
		c-6.62,4.14-2.62,15.35,10.43,15.18C98.69,180.07,101.38,161.89,110.12,159.84z M111.44,168.73c8.82,9.42,20.34,0.01,27.49-9.83
		C132.89,169.66,118.6,182.59,111.44,168.73z M126.4,154.08v-0.51c0-1.36-0.87-2.54-2.08-2.99L124.3,46.66h11.19
		c0.65,10.92,2.97,22.05,5.29,32.43c3.87,17.28,16.32,43.05,6.21,61.03C143.46,146.4,135.92,152.13,126.4,154.08z M147.83,164.92
		c-2-1.53-3.35-3.86-3.52-6.54c-0.18-2.78,0.95-5.35,2.87-7.13c2,1.53,3.35,3.86,3.52,6.54
		C150.88,160.58,149.75,163.14,147.83,164.92z M171.69,138.11c-1.16,9.87-6.64,17.89-14.31,23.95c-3.44,2.72-8.22,5.69-12.39,7.24
		l-1.56,0.58c6.93-4.55,15.1-10.99,18.98-17.61c2.66-4.53,5.31-9.05,5.96-14.55c1.95-16.56-7.66-41.06-14.04-57.07l0.81,1.46
		c1.8,3.23,3.46,6.66,5.02,10.01c3.35,7.22,6.36,14.77,8.58,22.42C170.86,121.86,172.59,130.47,171.69,138.11z"/>
</g>
</svg>
